<svg xmlns="http://www.w3.org/2000/svg" viewBox="0 0 512 512">
  <defs>
    <linearGradient id="bg" x1="0" y1="0" x2="1" y2="1">
      <stop offset="0" stop-color="#f8fcff"/>
      <stop offset="1" stop-color="#dbeeff"/>
    </linearGradient>
    <radialGradient id="halo" cx="50%" cy="38%" r="62%">
      <stop offset="0" stop-color="#fff7c9"/>
      <stop offset="1" stop-color="#ffe38a"/>
    </radialGradient>
    <linearGradient id="star" x1="0" y1="0" x2="0" y2="1">
      <stop offset="0" stop-color="#2f7dff"/>
      <stop offset="1" stop-color="#1557cf"/>
    </linearGradient>
  </defs>
  <rect width="512" height="512" rx="110" fill="url(#bg)"/>
  <circle cx="256" cy="256" r="184" fill="url(#halo)"/>
  <circle cx="256" cy="256" r="170" fill="none" stroke="#2563eb" stroke-opacity="0.18" stroke-width="16"/>
  <path d="M256 92l49 114 123 11-93 81 27 122-106-63-106 63 27-122-93-81 123-11 49-114z" fill="url(#star)"/>
  <path d="M256 146l34 78 84 8-64 56 19 84-73-43-73 43 19-84-64-56 84-8 34-78z" fill="#f5fbff" fill-opacity="0.92"/>
</svg>
