<svg xmlns="http://www.w3.org/2000/svg" viewBox="0 0 512 512" role="img" aria-label="KindPoints app icon">
  <defs>
    <linearGradient id="bg" x1="96" y1="52" x2="416" y2="460" gradientUnits="userSpaceOnUse">
      <stop offset="0" stop-color="#f8fbff"/>
      <stop offset="0.52" stop-color="#eaf4ff"/>
      <stop offset="1" stop-color="#d9ebff"/>
    </linearGradient>
    <linearGradient id="orb" x1="152" y1="126" x2="360" y2="386" gradientUnits="userSpaceOnUse">
      <stop offset="0" stop-color="#38bdf8"/>
      <stop offset="0.48" stop-color="#2563eb"/>
      <stop offset="1" stop-color="#1e40af"/>
    </linearGradient>
    <linearGradient id="shine" x1="178" y1="132" x2="292" y2="270" gradientUnits="userSpaceOnUse">
      <stop offset="0" stop-color="#ffffff" stop-opacity="0.78"/>
      <stop offset="1" stop-color="#ffffff" stop-opacity="0"/>
    </linearGradient>
    <linearGradient id="star" x1="216" y1="174" x2="296" y2="326" gradientUnits="userSpaceOnUse">
      <stop offset="0" stop-color="#fff8d6"/>
      <stop offset="1" stop-color="#fbbf24"/>
    </linearGradient>
    <filter id="cardShadow" x="-20%" y="-20%" width="140%" height="140%">
      <feDropShadow dx="0" dy="12" stdDeviation="18" flood-color="#1d4ed8" flood-opacity="0.2"/>
    </filter>
    <filter id="markShadow" x="-28%" y="-28%" width="156%" height="156%">
      <feDropShadow dx="0" dy="8" stdDeviation="8" flood-color="#0f172a" flood-opacity="0.18"/>
    </filter>
  </defs>

  <rect width="512" height="512" rx="112" fill="url(#bg)"/>
  <rect x="54" y="54" width="404" height="404" rx="92" fill="#ffffff" opacity="0.46"/>

  <g filter="url(#cardShadow)">
    <circle cx="256" cy="256" r="148" fill="url(#orb)"/>
    <circle cx="214" cy="200" r="88" fill="url(#shine)"/>
  </g>

  <g filter="url(#markShadow)">
    <path d="M256 165l28 57 63 9-46 44 11 63-56-30-56 30 11-63-46-44 63-9 28-57z" fill="url(#star)"/>
  </g>

  <circle cx="372" cy="143" r="16" fill="#93c5fd" opacity="0.75"/>
  <circle cx="143" cy="362" r="12" fill="#bfdbfe" opacity="0.9"/>
</svg>
